# Blender v2.76 (sub 0) OBJ File: 'scanPosMarker.blend'
# www.blender.org
mtllib scanPosMarker.mtl
o Cone_Cone.001
v 0.000000 0.000000 0.000000
v 0.000000 0.000000 2.400000
v 0.000000 0.600000 1.200000
v 0.424264 0.424264 1.200000
v 0.600000 -0.000000 1.200000
v 0.424264 -0.424264 1.200000
v -0.000000 -0.600000 1.200000
v -0.424264 -0.424264 1.200000
v -0.600000 0.000000 1.200000
v -0.424264 0.424264 1.200000
vn 0.347400 0.838700 -0.419400
vn 0.838700 0.347400 -0.419400
vn 0.838700 -0.347400 -0.419400
vn 0.347400 -0.838700 -0.419400
vn -0.347400 -0.838700 -0.419400
vn -0.838700 -0.347400 -0.419400
vn -0.838700 0.347400 -0.419400
vn -0.347400 0.838700 -0.419400
vn 0.347400 0.838700 0.419400
vn 0.838700 0.347400 0.419400
vn 0.838700 -0.347400 0.419400
vn 0.347400 -0.838700 0.419400
vn -0.347400 -0.838700 0.419400
vn -0.838700 -0.347400 0.419400
vn -0.838700 0.347400 0.419400
vn -0.347400 0.838700 0.419400
usemtl Material
s off
f 1//1 3//1 4//1
f 1//2 4//2 5//2
f 1//3 5//3 6//3
f 1//4 6//4 7//4
f 1//5 7//5 8//5
f 1//6 8//6 9//6
f 1//7 9//7 10//7
f 1//8 10//8 3//8
f 3//9 2//9 4//9
f 4//10 2//10 5//10
f 5//11 2//11 6//11
f 6//12 2//12 7//12
f 7//13 2//13 8//13
f 8//14 2//14 9//14
f 9//15 2//15 10//15
f 10//16 2//16 3//16
